<svg xmlns="http://www.w3.org/2000/svg" viewBox="0 0 56 72" width="56" height="72">
<defs>
  <linearGradient id="lg" x1="0" y1="0" x2="1" y2="1">
    <stop offset="0%" stop-color="#E8C84A"/>
    <stop offset="100%" stop-color="#B8902A"/>
  </linearGradient>
</defs>
<rect width="56" height="72" fill="#0D1530"/>
<path d="M4 8 L52 4 L52 46Q52 64 28 72Q4 64 4 46Z" fill="#0D1530" stroke="url(#lg)" stroke-width="2.4"/>
<line x1="28" y1="26" x2="28" y2="52" stroke="#C9A84C" stroke-width="2" stroke-linecap="round"/>
<line x1="14" y1="30" x2="42" y2="30" stroke="#C9A84C" stroke-width="2" stroke-linecap="round"/>
<line x1="14" y1="30" x2="11" y2="41" stroke="#C9A84C" stroke-width="1.4" stroke-linecap="round"/>
<line x1="14" y1="30" x2="17" y2="41" stroke="#C9A84C" stroke-width="1.4" stroke-linecap="round"/>
<path d="M8 41 Q14 46 20 41" fill="none" stroke="#C9A84C" stroke-width="2" stroke-linecap="round"/>
<line x1="42" y1="30" x2="39" y2="38" stroke="#C9A84C" stroke-width="1.4" stroke-linecap="round"/>
<line x1="42" y1="30" x2="45" y2="38" stroke="#C9A84C" stroke-width="1.4" stroke-linecap="round"/>
<path d="M36 38 Q42 43 48 38" fill="none" stroke="#C9A84C" stroke-width="2" stroke-linecap="round"/>
<line x1="22" y1="52" x2="34" y2="52" stroke="#C9A84C" stroke-width="2" stroke-linecap="round"/>
<polygon points="28,18 31,23 28,27 25,23" fill="#C9A84C"/>
</svg>
